<svg width="21" height="13" viewBox="0 0 21 13" fill="none" xmlns="http://www.w3.org/2000/svg">
<path d="M8.40488 5.93271C9.55988 5.37726 10.1549 4.53819 10.1549 3.22638C10.1549 0.626377 8.25322 0 6.05989 0H0.00488281V13H6.22322C8.55655 13 10.7499 11.8655 10.7499 9.23C10.7499 7.58727 9.97988 6.3818 8.40488 5.93271ZM2.83987 1.90271H5.51155C6.53822 1.90271 7.45988 2.18636 7.45988 3.39181C7.45988 4.50272 6.73654 4.95182 5.72154 4.95182H2.83987V1.90271ZM5.88487 10.53H2.83987V6.92544H5.94321C7.19155 6.92544 7.98488 7.45728 7.98488 8.79273C7.98488 10.1282 7.03987 10.53 5.88487 10.53ZM18.9516 1.64274H13.7132V0.354531H18.9516V1.64274ZM21.0049 8.15454C21.0049 5.35363 19.3832 3.01362 16.4549 3.01362C13.5266 3.01362 11.6715 5.18819 11.6715 8.02456C11.6715 10.8609 13.5032 13 16.4549 13C18.6832 13 20.1299 11.9836 20.8299 9.82091H18.5666C18.3216 10.6245 17.3182 11.05 16.5365 11.05C15.0315 11.05 14.2382 10.1636 14.2382 8.63909H20.9815C20.9932 8.48545 21.0049 8.31999 21.0049 8.15454ZM14.2382 6.99638C14.3199 5.75547 15.1365 4.97544 16.3732 4.97544C17.6099 4.97544 18.3099 5.74365 18.4149 6.99638H14.2382Z" fill="#595764"/>
</svg>
