<svg width="22" height="22" viewBox="0 0 22 22" fill="none" xmlns="http://www.w3.org/2000/svg">
<path d="M18.5449 3.35001C16.5249 1.22001 13.6849 0 10.7549 0C9.31488 0 7.9349 0.280007 6.6449 0.820007C6.6449 0.820007 6.64489 0.820007 6.63489 0.820007C3.02489 2.31001 0.5249 5.65 0.0848999 9.5C0.0848999 9.5 0.0848999 9.49999 0.0848999 9.50999C0.0348999 9.88999 0.00488281 10.29 0.00488281 10.73C0.00488281 13.65 1.15486 16.38 3.23486 18.4C5.25486 20.38 7.92488 21.48 10.7549 21.48C12.2549 21.48 13.6949 21.18 15.0349 20.59C18.7249 18.98 21.1849 15.5 21.4549 11.52C21.4749 11.27 21.4849 11.01 21.4849 10.74C21.4849 7.98001 20.4349 5.35 18.5249 3.34L18.5449 3.35001ZM13.4749 10.26C13.2249 9.63999 12.9549 9.01 12.6449 8.39C14.5849 7.48 16.3549 6.32 17.9249 4.92C19.2049 6.49 19.9249 8.43001 19.9849 10.46C17.8649 9.92001 15.6249 9.84999 13.4649 10.26H13.4749ZM16.8949 3.84C15.4249 5.14 13.7649 6.23001 11.9549 7.07001C10.9149 5.19001 9.67486 3.45001 8.23486 1.85001C9.04486 1.62001 9.88488 1.49001 10.7549 1.49001C13.0149 1.49001 15.2049 2.34 16.8949 3.84ZM6.74487 2.44C8.23487 4.02 9.51488 5.77 10.5649 7.66C7.76488 8.72 4.8349 9.15999 1.7049 8.92999C2.26489 6.09999 4.12486 3.7 6.73486 2.44H6.74487ZM1.51489 10.42C2.10489 10.47 2.68488 10.5 3.25488 10.5C6.01488 10.5 8.70489 9.98001 11.2649 8.99001C11.5349 9.53001 11.7749 10.08 12.0049 10.63C8.61488 11.61 5.65486 13.76 3.66486 16.69C2.26486 15.03 1.50488 12.96 1.50488 10.76C1.50488 10.65 1.50488 10.54 1.50488 10.43L1.51489 10.42ZM4.74487 17.76C6.56487 14.97 9.3349 12.93 12.5249 12.03C13.3549 14.41 13.8349 16.88 13.9449 19.41C12.9349 19.79 11.8649 19.99 10.7449 19.99C8.51487 19.99 6.41486 19.19 4.73486 17.75L4.74487 17.76ZM15.4049 18.73C15.2449 16.32 14.7649 13.96 13.9949 11.69C15.9649 11.36 17.9849 11.47 19.8949 12C19.5149 14.83 17.8749 17.3 15.4049 18.73Z" fill="#595764"/>
</svg>
