<svg width="20" height="20" viewBox="0 0 20 20" fill="none" xmlns="http://www.w3.org/2000/svg">
<path d="M10.2549 0C4.87488 0 0.504883 4.37 0.504883 9.75C0.504883 15.13 4.87488 19.5 10.2549 19.5C15.6349 19.5 20.0049 15.13 20.0049 9.75C20.0049 4.37 15.6349 0 10.2549 0ZM12.4849 17.69C12.4849 17.28 12.4849 16.42 12.4849 15.39C12.4849 14.55 12.1949 14 11.8749 13.72C13.8749 13.5 15.9849 12.74 15.9849 9.28C15.9849 8.3 15.6349 7.5 15.0549 6.87C15.1549 6.64 15.4649 5.72001 14.9749 4.48001C14.9749 4.48001 14.2149 4.24 12.4949 5.41C11.7749 5.21 11.0049 5.11001 10.2449 5.10001C9.47487 5.11001 8.70487 5.21 7.99487 5.41C6.27487 4.24 5.51489 4.48001 5.51489 4.48001C5.02489 5.72001 5.33487 6.64 5.42487 6.87C4.85487 7.5 4.50488 8.3 4.50488 9.28C4.50488 12.73 6.60486 13.5 8.60486 13.73C8.34486 13.95 8.11491 14.35 8.03491 14.93C7.51491 15.16 6.21486 15.56 5.41486 14.18C5.41486 14.18 4.93491 13.32 4.03491 13.26C4.03491 13.26 3.15485 13.25 3.97485 13.8C3.97485 13.8 4.56485 14.08 4.97485 15.12C4.97485 15.12 5.49488 16.73 8.00488 16.18C8.00488 16.8 8.00488 17.37 8.00488 17.69C4.53488 16.71 1.98486 13.53 1.98486 9.75C1.98486 5.2 5.68486 1.5 10.2349 1.5C14.7849 1.5 18.4849 5.2 18.4849 9.75C18.4849 13.53 15.9349 16.71 12.4649 17.69H12.4849Z" fill="#595764"/>
</svg>
