<svg width="20" height="20" viewBox="0 0 20 20" fill="none" xmlns="http://www.w3.org/2000/svg">
<path d="M19.4275 5.9938C19.3675 4.7238 19.1175 3.0938 17.7575 1.7338C16.3975 0.373803 14.7675 0.123805 13.4975 0.0638051C11.9875 -0.0161949 7.49752 -0.026195 5.99752 0.0638051C4.72752 0.123805 3.09751 0.363803 1.73751 1.7338C0.377513 3.0938 0.1275 4.7238 0.0675 5.9938C-0.0225 7.5038 -0.0225 11.9938 0.0675 13.4938C0.1275 14.7638 0.367513 16.3938 1.73751 17.7638C3.10751 19.1238 4.73752 19.3738 5.99752 19.4338C6.75752 19.4738 8.2575 19.4938 9.7575 19.4938C11.2575 19.4938 12.7475 19.4738 13.4975 19.4338C14.7675 19.3738 16.3975 19.1338 17.7675 17.7638C19.1275 16.4038 19.3775 14.7738 19.4375 13.5038C19.5275 11.9938 19.5275 7.51379 19.4375 6.00379L19.4275 5.9938ZM17.9275 13.4138C17.8475 14.9238 17.4875 15.9038 16.6875 16.6938C15.8975 17.4838 14.9175 17.8538 13.4075 17.9238C11.9375 18.0038 7.54752 18.0038 6.05752 17.9238C4.55752 17.8438 3.57752 17.4738 2.77752 16.6838C1.98752 15.8938 1.61751 14.9138 1.54751 13.4038C1.46751 11.9638 1.46751 7.5038 1.54751 6.0538C1.62751 4.5438 1.98752 3.5638 2.77752 2.7738C3.56752 1.9838 4.55752 1.6138 6.05752 1.5438C6.79752 1.5038 8.2575 1.4838 9.7275 1.4838C11.1975 1.4838 12.6675 1.5038 13.4075 1.5438C14.9175 1.6238 15.8975 1.98379 16.6875 2.78379C17.4775 3.57379 17.8475 4.55381 17.9175 6.06381C17.9975 7.54381 17.9975 11.9338 17.9175 13.4138H17.9275ZM9.73751 4.9938C7.11751 4.9938 4.98751 7.1238 4.98751 9.7438C4.98751 12.3638 7.11751 14.4938 9.73751 14.4938C12.3575 14.4938 14.4875 12.3638 14.4875 9.7438C14.4875 7.1238 12.3575 4.9938 9.73751 4.9938ZM9.73751 12.9938C7.94751 12.9938 6.48751 11.5338 6.48751 9.7438C6.48751 7.9538 7.94751 6.4938 9.73751 6.4938C11.5275 6.4938 12.9875 7.9538 12.9875 9.7438C12.9875 11.5338 11.5275 12.9938 9.73751 12.9938ZM16.2575 4.2438C16.2575 4.7938 15.8075 5.2438 15.2575 5.2438C14.7075 5.2438 14.2575 4.7938 14.2575 4.2438C14.2575 3.6938 14.6975 3.2438 15.2575 3.2438C15.8075 3.2438 16.2575 3.6938 16.2575 4.2438Z" fill="#595764"/>
</svg>
