<svg width="24" height="26" viewBox="0 0 24 26" fill="none" xmlns="http://www.w3.org/2000/svg">
<g id="Group">
<g id="Group_2">
<g id="Group_3">
<path id="Vector" d="M13.7814 10.8439H8.80952L6.3236 15.592L5.82644 16.1196C5.00111 16.9953 5.00111 18.4092 5.82644 19.285C6.65172 20.1607 7.98419 20.1608 8.80956 19.285L9.30672 18.7575L13.7814 16.1196V10.8439ZM5.46077 14.215C5.68994 14.1686 5.88171 14.0053 5.97442 13.778C6.49492 12.5024 7.65194 10.6214 9.07019 8.74655C9.21391 8.55589 9.26102 8.30297 9.19544 8.06854C9.06124 7.58601 8.62445 7.54891 8.53464 7.49822C8.39627 7.44928 5.10194 6.33694 1.84886 9.78885C-0.608885 12.3968 0.793802 13.945 0.854505 14.0094C1.12933 14.3011 1.57408 14.3011 1.84886 14.0094C2.67138 13.1367 4.00947 13.1367 4.83199 14.0094C4.99656 14.184 5.23207 14.2608 5.46077 14.215ZM16.3969 15.7101C16.176 15.6406 15.9376 15.6905 15.7579 15.843C13.9294 17.4 12.2038 18.5963 11.0221 19.1248C10.8065 19.2217 10.6502 19.4257 10.605 19.6694C10.5608 19.9131 10.6327 20.1645 10.7982 20.3402C11.6207 21.2129 11.6207 22.6329 10.7982 23.5056C10.5234 23.7973 10.5234 24.2692 10.7982 24.5608C10.8589 24.6251 12.318 26.1136 14.7757 23.5056C18.0288 20.0537 16.9805 16.5581 16.9344 16.4123C16.8888 16.3214 16.8506 15.8515 16.3969 15.7101ZM23.9239 0.714534C23.8742 0.387444 23.6356 0.134218 23.3272 0.0813941C23.1483 0.0602546 20.4933 -0.309015 17.1721 0.72498L19.228 5.01679L23.3173 7.24579C24.2918 3.72166 23.9438 0.904392 23.9239 0.714534ZM14.7757 5.56816C13.6819 6.72884 13.6819 8.62807 14.7757 9.78875C15.8794 10.9599 17.6594 10.9494 18.7532 9.78875C19.8569 8.61757 19.8569 6.73934 18.7532 5.56816C17.6594 4.40748 15.8795 4.39698 14.7757 5.56816Z" fill="url(#paint0_linear_729_395)"/>
</g>
</g>
<g id="Group_4">
<g id="Group_5">
<path id="Vector_2" d="M17.1718 0.725098C14.9941 1.38992 12.5381 2.6666 10.3007 5.04069C9.5649 5.82151 8.7594 6.78169 7.97387 7.80509C6.48231 9.78877 5.24931 11.7936 4.69248 13.1864C4.57313 13.4607 4.62287 13.7878 4.8317 14.0094L6.32326 15.5921L9.80354 11.8991C10.6289 11.0233 11.9613 11.0233 12.7867 11.8991C13.6219 12.7854 13.6219 14.1782 12.7867 15.0645L9.30638 18.7575L10.7979 20.3403C10.9968 20.5513 11.305 20.6251 11.5636 20.4985C12.8662 19.9182 14.7158 18.652 16.6448 17.006C17.6093 16.1724 18.5142 15.3178 19.25 14.537C21.4874 12.1629 22.6905 9.55673 23.3169 7.24591L17.1718 0.725098ZM18.7529 9.78882C17.659 10.9495 15.8791 10.96 14.7754 9.78882C13.6816 8.62814 13.6816 6.72891 14.7754 5.56823C15.8791 4.39705 17.659 4.40755 18.7529 5.56823C19.8566 6.73941 19.8566 8.61764 18.7529 9.78882ZM4.84088 20.3409C4.56606 20.0493 4.12135 20.0493 3.84653 20.3409L0.206121 24.1934C-0.068707 24.485 -0.068707 24.9569 0.206121 25.2485C0.480949 25.5401 0.925699 25.5401 1.20048 25.2485L4.84088 21.396C5.11571 21.1044 5.11571 20.6324 4.84088 20.3409ZM5.83524 22.4511L4.84088 23.5063C4.56606 23.7979 4.56606 24.2698 4.84088 24.5614C5.11571 24.853 5.56046 24.853 5.83524 24.5614L6.8296 23.5063C7.10443 23.2147 7.10443 22.7427 6.8296 22.4511C6.55477 22.1595 6.11007 22.1595 5.83524 22.4511ZM1.85776 20.3409L2.85212 19.2857C3.12695 18.9941 3.12695 18.5222 2.85212 18.2306C2.57729 17.939 2.13254 17.939 1.85776 18.2306L0.863402 19.2857C0.588574 19.5773 0.588574 20.0493 0.863402 20.3409C1.13823 20.6324 1.58298 20.6324 1.85776 20.3409Z" fill="url(#paint1_linear_729_395)"/>
</g>
</g>
</g>
<defs>
<linearGradient id="paint0_linear_729_395" x1="5.82727" y1="19.2814" x2="24.781" y2="1.41939" gradientUnits="userSpaceOnUse">
<stop stop-color="#ADDCFF"/>
<stop offset="0.5028" stop-color="#EAF6FF"/>
<stop offset="1" stop-color="#EAF6FF"/>
</linearGradient>
<linearGradient id="paint1_linear_729_395" x1="0.20791" y1="25.244" x2="21.4304" y2="5.2439" gradientUnits="userSpaceOnUse">
<stop stop-color="#5558FF"/>
<stop offset="1" stop-color="#00C0FF"/>
</linearGradient>
</defs>
</svg>
