<svg width="148" height="35" viewBox="0 0 148 35" fill="none" xmlns="http://www.w3.org/2000/svg">
<path d="M43 21.527V1.37622H49.7668C50.9772 1.37622 51.9724 1.60451 52.7521 2.06043C53.5315 2.51669 54.1118 3.18005 54.4934 4.05053C54.8747 4.92135 55.0657 5.97843 55.0657 7.22245C55.0657 8.78151 54.8085 9.97141 54.2944 10.7925C53.78 11.6135 53.0836 12.1817 52.2048 12.4964C51.3255 12.8118 50.3391 12.9692 49.2443 12.9692H47.4533V21.527H43ZM47.4533 9.85944H48.9461C49.4935 9.85944 49.9077 9.75992 50.1901 9.56088C50.4719 9.36183 50.6585 9.06327 50.7499 8.66518C50.841 8.26709 50.8868 7.76142 50.8868 7.14747C50.8868 6.63373 50.8494 6.18151 50.7748 5.79149C50.7002 5.40215 50.5216 5.09114 50.2399 4.85847C49.9578 4.62648 49.5183 4.51015 48.9212 4.51015H47.4533V9.85877V9.85944Z" fill="white"/>
<path d="M61.061 7.14771H57.0059V21.5269H61.061V7.14771Z" fill="white"/>
<path d="M62.5786 21.527L65.6386 13.6406L62.7279 7.14746H66.808L68.3505 10.6055L69.719 7.14746H72.8287L69.9927 14.2377L73.2517 21.527H69.1218L67.3805 17.5714L65.9375 21.527H62.5789H62.5786Z" fill="white"/>
<path d="M79.0721 21.7759C78.0271 21.7759 77.1317 21.5893 76.3853 21.2161C75.6389 20.8429 75.0667 20.2955 74.6689 19.5743C74.2708 18.8528 74.0718 17.9863 74.0718 16.9746V11.7007C74.0718 10.6725 74.2708 9.80169 74.6689 9.08856C75.067 8.37577 75.6429 7.8321 76.3978 7.45922C77.1522 7.08602 78.0436 6.89941 79.0721 6.89941C80.1006 6.89941 81.0164 7.08198 81.7215 7.44678C82.4262 7.81192 82.9568 8.35089 83.3135 9.06401C83.6699 9.77748 83.8484 10.6564 83.8484 11.701V14.5868H78.0769V17.3482C78.0769 17.7133 78.1182 18.0116 78.2013 18.2439C78.284 18.4762 78.4003 18.642 78.5496 18.7415C78.6989 18.841 78.873 18.8908 79.0721 18.8908C79.2711 18.8908 79.449 18.8454 79.607 18.7539C79.7644 18.6628 79.8888 18.5176 79.9802 18.3185C80.0713 18.1195 80.1171 17.8458 80.1171 17.4975V15.9798H83.8488V17.3731C83.8488 18.8326 83.4258 19.9317 82.5799 20.6694C81.7339 21.4074 80.5649 21.7766 79.0721 21.7766V21.7759ZM78.0769 12.6955H80.1167V11.2525C80.1167 10.8712 80.071 10.5726 79.9799 10.3568C79.8884 10.1413 79.764 9.99232 79.6067 9.90894C79.449 9.82623 79.2624 9.78454 79.0469 9.78454C78.8478 9.78454 78.6777 9.8343 78.5368 9.93382C78.3956 10.0333 78.2836 10.2035 78.2009 10.4439C78.1179 10.6846 78.0765 11.0286 78.0765 11.4764V12.6955H78.0769Z" fill="white"/>
<path d="M86.2368 21.527V1.37622H90.2671V21.5274H86.2368V21.527Z" fill="white"/>
<path d="M98.2268 21.7509C96.8002 21.7509 95.6931 21.4523 94.9056 20.8552C94.1175 20.2581 93.5705 19.4538 93.2635 18.4421C92.9565 17.4308 92.8032 16.3027 92.8032 15.0587V7.94359C92.8032 6.5839 92.9565 5.39805 93.2635 4.38602C93.5701 3.37466 94.1175 2.59093 94.9056 2.03515C95.6931 1.47972 96.8002 1.20166 98.2268 1.20166C99.487 1.20166 100.487 1.43399 101.225 1.89831C101.962 2.36297 102.493 3.02634 102.817 3.88841C103.14 4.75082 103.302 5.78773 103.302 6.99813V8.59048H100.64V7.1723C100.64 6.42588 100.603 5.76655 100.528 5.19464C100.454 4.62239 100.25 4.17891 99.9187 3.86353C99.5868 3.54883 99.0314 3.3908 98.252 3.3908C97.4727 3.3908 96.8752 3.56093 96.5107 3.90085C96.1456 4.24111 95.9092 4.72191 95.8017 5.34392C95.6937 5.96593 95.6399 6.6915 95.6399 7.52062V15.5062C95.6399 16.5179 95.7226 17.3185 95.8887 17.9069C96.0545 18.4959 96.3278 18.9145 96.7098 19.1633C97.0911 19.4121 97.6055 19.5365 98.2524 19.5365C99.0149 19.5365 99.5623 19.3667 99.8945 19.0265C100.226 18.6869 100.433 18.2179 100.517 17.6207C100.599 17.0236 100.641 16.327 100.641 15.5311V14.0383H103.303V15.5311C103.303 16.7587 103.153 17.841 102.855 18.7777C102.556 19.7147 102.042 20.4443 101.312 20.9668C100.582 21.4893 99.5542 21.7506 98.2275 21.7506L98.2268 21.7509Z" fill="white"/>
<path d="M105.84 21.527V7.1478H108.502V9.18766C109.033 8.30877 109.563 7.71971 110.094 7.42148C110.625 7.12292 111.156 6.97363 111.686 6.97363H111.873C111.931 6.97363 112.01 6.98204 112.109 6.99851V9.93407C111.91 9.85136 111.682 9.78075 111.425 9.72259C111.168 9.66476 110.907 9.6355 110.641 9.6355C110.227 9.6355 109.849 9.73099 109.509 9.92163C109.169 10.1126 108.833 10.4814 108.502 11.0288V21.5273H105.84L105.84 21.527Z" fill="white"/>
<path d="M115.692 21.726C115.128 21.726 114.631 21.5642 114.199 21.2408C113.768 20.9174 113.428 20.5031 113.179 19.9968C112.931 19.4911 112.806 18.9562 112.806 18.3923C112.806 17.4966 112.955 16.7422 113.254 16.1285C113.553 15.5153 113.963 14.9965 114.486 14.5735C115.008 14.1506 115.613 13.7817 116.302 13.4663C116.989 13.1516 117.715 12.8443 118.478 12.5458V11.5257C118.478 10.9453 118.445 10.4645 118.379 10.0826C118.312 9.70132 118.175 9.4152 117.968 9.22422C117.761 9.03392 117.45 8.9381 117.035 8.9381C116.67 8.9381 116.376 9.02115 116.152 9.1869C115.928 9.353 115.766 9.58936 115.667 9.89599C115.567 10.203 115.517 10.5637 115.517 10.9783V11.6998L112.88 11.6003C112.913 10.008 113.279 8.83488 113.975 8.08006C114.672 7.32558 115.75 6.948 117.209 6.948C118.669 6.948 119.647 7.33802 120.244 8.11738C120.842 8.89708 121.14 10.0248 121.14 11.5008V18.0685C121.14 18.5164 121.153 18.9478 121.177 19.3623C121.202 19.7772 121.235 20.1625 121.277 20.5193C121.318 20.876 121.356 21.2119 121.389 21.5269H118.951C118.901 21.2617 118.839 20.9261 118.764 20.5193C118.69 20.1131 118.636 19.7443 118.603 19.4121C118.437 19.9763 118.117 20.5028 117.645 20.992C117.172 21.4815 116.521 21.726 115.692 21.726H115.692ZM116.737 19.4373C117.003 19.4373 117.251 19.3627 117.484 19.2134C117.716 19.0641 117.923 18.8943 118.106 18.7033C118.288 18.513 118.412 18.3594 118.479 18.243V14.163C118.064 14.3953 117.674 14.6277 117.31 14.8596C116.944 15.092 116.625 15.3367 116.352 15.5936C116.078 15.8508 115.862 16.141 115.705 16.4644C115.547 16.7879 115.468 17.157 115.468 17.5716C115.468 18.1523 115.576 18.6082 115.792 18.94C116.007 19.2719 116.322 19.4376 116.737 19.4376V19.4373Z" fill="white"/>
<path d="M124.548 21.527V9.11302H122.832V7.14781H124.548V6.40139C124.548 5.5057 124.619 4.73877 124.76 4.10029C124.901 3.46214 125.195 2.96823 125.643 2.6199C126.091 2.27157 126.763 2.09741 127.658 2.09741C127.99 2.09741 128.284 2.10985 128.541 2.13473C128.798 2.15961 129.084 2.20534 129.4 2.27157V4.21191C129.251 4.17896 129.084 4.14971 128.902 4.12483C128.72 4.09995 128.554 4.08751 128.405 4.08751C127.89 4.08751 127.563 4.25764 127.422 4.59756C127.281 4.93782 127.21 5.3897 127.21 5.95355V7.14781H129.399V9.11302H127.21V21.527H124.548Z" fill="white"/>
<path d="M134.673 21.7261C133.927 21.7261 133.325 21.5849 132.869 21.3031C132.413 21.0214 132.082 20.6233 131.874 20.1089C131.667 19.5951 131.563 18.9892 131.563 18.2929V8.91399H130.046V7.14782H131.563V2.94336H134.225V7.14782H136.539V8.91399H134.225V18.1187C134.225 18.6826 134.316 19.0851 134.499 19.3255C134.681 19.5662 135.029 19.6862 135.544 19.6862C135.676 19.6862 135.83 19.6781 136.004 19.6613C136.178 19.6449 136.348 19.6284 136.514 19.6116V21.5768C136.182 21.6266 135.875 21.6639 135.594 21.6888C135.311 21.7136 135.005 21.7261 134.673 21.7261Z" fill="white"/>
<path d="M45.6126 34.2986C45.048 34.2986 44.5783 34.1776 44.2034 33.9358C43.8286 33.6941 43.5441 33.3595 43.3508 32.9319C43.1571 32.5045 43.0441 32.0086 43.0122 31.4441L44.2216 31.1176C44.2458 31.4643 44.3003 31.7991 44.385 32.1216C44.4697 32.4443 44.6089 32.7083 44.8023 32.9137C44.9959 33.1195 45.2659 33.222 45.6126 33.222C45.9592 33.222 46.2356 33.1235 46.4168 32.9258C46.5984 32.7285 46.6888 32.444 46.6888 32.0732C46.6888 31.6297 46.5879 31.273 46.3865 31.0026C46.1848 30.7326 45.931 30.4603 45.6247 30.1863L43.9799 28.7348C43.6574 28.4527 43.4194 28.1441 43.2664 27.8095C43.1131 27.475 43.0364 27.0618 43.0364 26.5699C43.0364 25.8524 43.2422 25.2959 43.6534 24.9009C44.0646 24.5058 44.6251 24.3081 45.3345 24.3081C45.7215 24.3081 46.0621 24.3585 46.3566 24.4594C46.6508 24.5603 46.8966 24.7156 47.0943 24.9251C47.2916 25.1349 47.449 25.3988 47.566 25.7172C47.6827 26.036 47.7613 26.4088 47.8017 26.8362L46.6404 27.1505C46.6162 26.8281 46.5678 26.5319 46.4951 26.2616C46.4225 25.9916 46.2954 25.7737 46.1142 25.6083C45.9326 25.4432 45.6727 25.3605 45.3342 25.3605C44.9956 25.3605 44.7313 25.4513 44.542 25.6325C44.3524 25.814 44.2579 26.082 44.2579 26.4367C44.2579 26.735 44.308 26.9811 44.4092 27.1744C44.5101 27.3681 44.6731 27.5658 44.8991 27.7672L46.556 29.2186C46.9268 29.5414 47.2533 29.9264 47.5357 30.3739C47.8178 30.8214 47.959 31.3516 47.959 31.9646C47.959 32.4484 47.8582 32.8656 47.6568 33.2163C47.455 33.567 47.179 33.8353 46.8283 34.0206C46.4776 34.2058 46.0725 34.2986 45.6129 34.2986H45.6126Z" fill="white"/>
<path d="M56.8244 34.2867C56.4616 34.2867 56.1691 34.2181 55.9475 34.0809C55.7256 33.9437 55.5645 33.7504 55.4637 33.5002C55.3628 33.2504 55.3124 32.9559 55.3124 32.6173V28.0575H54.5747V27.1988H55.3124V25.1545H56.6065V27.1988H57.7315V28.0575H56.6065V32.5326C56.6065 32.807 56.6509 33.0023 56.7396 33.1193C56.8284 33.2363 56.9975 33.2948 57.2477 33.2948C57.3122 33.2948 57.3869 33.2908 57.4716 33.2827C57.5563 33.2746 57.6387 33.2666 57.7194 33.2585V34.2141C57.558 34.2383 57.4087 34.2564 57.2719 34.2685C57.1347 34.2806 56.9854 34.2867 56.8244 34.2867Z" fill="white"/>
<path d="M65.7389 34.2866C65.4645 34.2866 65.251 34.214 65.0977 34.0691C64.9444 33.9238 64.8378 33.7426 64.7773 33.5248C64.7168 33.3072 64.6865 33.0853 64.6865 32.8594V27.1987H65.9806V32.4724C65.9806 32.7225 66.017 32.9179 66.0896 33.0591C66.1622 33.2003 66.3112 33.2709 66.5371 33.2709C66.6823 33.2709 66.8333 33.2285 66.9907 33.1438C67.148 33.0591 67.299 32.9562 67.4442 32.8355V27.1991H68.7383V34.1901H67.4442V33.5005C67.2183 33.7184 66.9624 33.904 66.6763 34.057C66.3898 34.21 66.0775 34.2866 65.7389 34.2866Z" fill="white"/>
<path d="M77.7249 34.2866C77.1362 34.2866 76.6968 34.0711 76.4066 33.6394C76.1164 33.208 75.9712 32.4764 75.9712 31.4442V30.0895C75.9712 29.5573 76.0156 29.0634 76.1043 28.6078C76.1931 28.1522 76.3602 27.7874 76.6063 27.5131C76.8521 27.239 77.2129 27.1019 77.6889 27.1019C77.9226 27.1019 78.1365 27.1543 78.3301 27.2592C78.5238 27.3641 78.6969 27.4932 78.8503 27.6462V24.3926H80.1444V34.1898H78.8503V33.7422C78.6969 33.9036 78.5298 34.0348 78.3483 34.1353C78.1667 34.2362 77.9593 34.2866 77.7253 34.2866H77.7249ZM78.0514 33.2705C78.1724 33.2705 78.3012 33.2483 78.4384 33.204C78.5756 33.1596 78.7124 33.0933 78.8496 33.0042V28.4202C78.7366 28.3398 78.6115 28.2689 78.4747 28.2084C78.3375 28.1478 78.1882 28.1176 78.0272 28.1176C77.729 28.1176 77.5272 28.2608 77.4223 28.5469C77.3174 28.8334 77.265 29.178 77.265 29.5812V31.5528C77.265 31.8755 77.2831 32.1677 77.3194 32.4296C77.3557 32.6919 77.4301 32.8973 77.5434 33.0466C77.6563 33.1959 77.8255 33.2702 78.0514 33.2702V33.2705Z" fill="white"/>
<path d="M87.5825 26.1583V24.8037H88.8766V26.1583H87.5825ZM87.5825 34.1897V27.1986H88.8766V34.1897H87.5825Z" fill="white"/>
<path d="M98.2391 34.2864C97.723 34.2864 97.3158 34.1819 97.0176 33.9721C96.719 33.7626 96.5075 33.464 96.3824 33.0771C96.2574 32.6901 96.1948 32.2345 96.1948 31.7103V29.6782C96.1948 29.154 96.2574 28.6984 96.3824 28.3114C96.5075 27.9244 96.719 27.6262 97.0176 27.4164C97.3158 27.207 97.723 27.1021 98.2391 27.1021C98.7552 27.1021 99.1603 27.207 99.4545 27.4164C99.7487 27.6262 99.9582 27.9244 100.084 28.3114C100.209 28.6984 100.271 29.154 100.271 29.6782V31.7103C100.271 32.2345 100.209 32.6901 100.084 33.0771C99.9585 33.464 99.7487 33.7626 99.4545 33.9721C99.16 34.1819 98.7548 34.2864 98.2391 34.2864ZM98.2391 33.3309C98.4889 33.3309 98.6644 33.2583 98.7652 33.113C98.8661 32.9678 98.9263 32.7765 98.9468 32.5384C98.967 32.3007 98.9771 32.0526 98.9771 31.7947V29.6056C98.9771 29.3396 98.967 29.0898 98.9468 28.8558C98.9266 28.6221 98.8661 28.4305 98.7652 28.2812C98.6644 28.1322 98.4889 28.0576 98.2391 28.0576C97.9892 28.0576 97.8117 28.1322 97.7068 28.2812C97.6019 28.4305 97.5394 28.6218 97.5192 28.8558C97.499 29.0898 97.4889 29.3396 97.4889 29.6056V31.7947C97.4889 32.0529 97.499 32.3007 97.5192 32.5384C97.5394 32.7765 97.6019 32.9678 97.7068 33.113C97.8114 33.2583 97.9889 33.3309 98.2391 33.3309Z" fill="white"/>
<rect x="57.02" y="1.36987" width="4.03467" height="2.79064" fill="#0056FF"/>
<path d="M144.365 2C143.971 2 143.581 2.0776 143.217 2.22836C142.853 2.37913 142.522 2.6001 142.243 2.87868C141.681 3.44129 141.365 4.20435 141.365 5C141.365 5.79565 141.681 6.55871 142.243 7.12132C142.522 7.3999 142.853 7.62087 143.217 7.77164C143.581 7.9224 143.971 8 144.365 8C145.16 8 145.923 7.68393 146.486 7.12132C147.049 6.55871 147.365 5.79565 147.365 5C147.365 4.60603 147.287 4.21593 147.136 3.85195C146.986 3.48797 146.765 3.15726 146.486 2.87868C146.207 2.6001 145.877 2.37913 145.513 2.22836C145.149 2.0776 144.759 2 144.365 2ZM144.365 7.4C143.042 7.4 141.965 6.323 141.965 5C141.965 3.677 143.042 2.6 144.365 2.6C145.688 2.6 146.765 3.677 146.765 5C146.765 6.323 145.688 7.4 144.365 7.4ZM144.44 5.381H144.008V6.35H143.465V3.713H144.443C144.752 3.713 144.992 3.782 145.163 3.92C145.331 4.061 145.415 4.25 145.415 4.508C145.415 4.688 145.376 4.838 145.298 4.958C145.22 5.078 145.103 5.174 144.944 5.243L145.514 6.32V6.35H144.932L144.44 5.381ZM144.008 4.943H144.446C144.581 4.943 144.686 4.907 144.761 4.838C144.836 4.769 144.872 4.673 144.872 4.55C144.872 4.427 144.839 4.331 144.767 4.259C144.698 4.187 144.59 4.154 144.443 4.154H144.008V4.943Z" fill="white"/>
<path d="M0 3.07632C0 1.37732 1.37732 0 3.07632 0V3.07632H0Z" fill="#0056FF"/>
<rect x="24.1372" y="6.86255" width="6.86256" height="12.9856" fill="white"/>
<path d="M9.76149 0H24.1078V6.86256H5.11743L9.76149 0Z" fill="white"/>
<path fill-rule="evenodd" clip-rule="evenodd" d="M6.86256 19.8481C3.07247 19.8481 0 22.9206 0 26.7107V33.9578H6.86256V19.8481ZM24.1168 19.8481H6.86279V26.2374H24.1168V19.8481Z" fill="white"/>
</svg>
