<svg width="30" height="34" viewBox="0 0 30 34" fill="none" xmlns="http://www.w3.org/2000/svg">
<path d="M29.48 0L26.7158 29.9403L14.7398 33.1649L2.7636 29.9403L0 0H29.48ZM23.91 6.08789H14.729H5.38539L5.83224 9.70346H14.729H15.2288L14.729 9.91147L6.1574 13.4815L6.44167 17.0156L14.729 17.0425L19.1708 17.0566L18.8865 21.7688L14.729 22.9394V22.9357L14.6949 22.9451L10.6798 21.9316L10.4361 19.0064H10.4228H6.69862H6.68551L7.17299 24.6534L14.7291 26.8879V26.8838L14.7427 26.8879L22.2583 24.694L23.2332 13.4815H14.7291H14.7081L14.7291 13.4724L23.5448 9.70346L23.91 6.08789Z" fill="white"/>
</svg>
