<svg width="22" height="32" viewBox="0 0 22 32" fill="none" xmlns="http://www.w3.org/2000/svg">
<path fill-rule="evenodd" clip-rule="evenodd" d="M6.81289 0C4.68183 0 2.95871 0.724185 1.76432 1.9273C0.582519 3.11751 0 4.69766 0 6.26084C0 7.82402 0.582519 9.40417 1.76432 10.5944C1.84606 10.6766 1.93024 10.7568 2.01685 10.8349C2.13132 10.9375 2.25006 11.036 2.37293 11.1304C2.26307 11.2146 2.15658 11.3023 2.05344 11.3933C1.9539 11.4816 1.85747 11.5726 1.76432 11.6664C0.582519 12.8566 0 14.4368 0 15.9999C0 17.5631 0.582519 19.1433 1.76432 20.3334C1.94282 20.5134 2.13308 20.6819 2.33475 20.8396C1.51599 21.4992 0.873551 22.3593 0.470978 23.3429C0.00268096 24.487 -0.119845 25.7458 0.118924 26.9604C0.357679 28.1752 0.946907 29.2906 1.81224 30.1663C2.67766 31.0419 3.78016 31.6377 4.98035 31.8796C6.18062 32.1215 7.4247 31.9971 8.55539 31.5229C9.68605 31.0495 10.6523 30.2471 11.3322 29.2173C12.0121 28.1881 12.375 26.9774 12.375 25.739V21.2064C13.3581 21.8722 14.5406 22.2608 15.8125 22.2608C19.2298 22.2608 22 19.4579 22 15.9999C22 14.0162 21.0882 12.2479 19.6654 11.1005C19.867 10.9429 20.0573 10.7744 20.2357 10.5944C21.4175 9.40417 22 7.82402 22 6.26084C22 4.69766 21.4175 3.11751 20.2357 1.9273C19.0413 0.724185 17.3181 0 15.1872 0H6.81289ZM9.625 12.5217H6.81289C5.31864 12.5217 4.32289 13.0149 3.70462 13.6378C3.07377 14.2737 2.75 15.1283 2.75 15.9999C2.75 16.8716 3.07377 17.7261 3.70462 18.3621C4.32289 18.985 5.31872 19.4782 6.81289 19.4782H9.625V12.5217ZM4.28941 22.8647C4.85119 22.4849 5.51174 22.2608 6.1875 22.2608C6.1875 22.2608 6.7123 22.2608 6.81289 22.2608H9.625V25.739C9.625 26.4224 9.40376 27.0909 9.02825 27.6596C8.65287 28.2282 8.11925 28.671 7.49495 28.9326C6.87064 29.1949 6.18372 29.2628 5.52098 29.1296C4.85823 28.9965 4.24946 28.667 3.7716 28.1832C3.29383 27.7003 2.96845 27.0841 2.83661 26.4137C2.70476 25.743 2.77241 25.0474 3.03106 24.4163C3.28963 23.7845 3.72754 23.2444 4.28941 22.8647ZM12.375 9.73909H15.1872C16.6812 9.73909 17.6771 9.24588 18.2953 8.62292C18.9262 7.98705 19.25 7.13243 19.25 6.26084C19.25 5.38925 18.9262 4.53463 18.2953 3.89876C17.6771 3.2758 16.6814 2.7826 15.1872 2.7826H12.375V9.73909ZM9.625 9.73909H6.81289C5.31872 9.73909 4.32289 9.24588 3.70462 8.62292C3.07377 7.98705 2.75 7.13243 2.75 6.26084C2.75 5.38925 3.07377 4.53463 3.70462 3.89876C4.32289 3.2758 5.31864 2.7826 6.81289 2.7826H9.625V9.73909ZM15.8125 19.4572C13.9256 19.4572 12.396 17.9089 12.396 15.9999C12.396 14.0909 13.9256 12.5427 15.8125 12.5427C17.6994 12.5427 19.229 14.0909 19.229 15.9999C19.229 17.9089 17.6994 19.4572 15.8125 19.4572Z" fill="white"/>
</svg>
