<svg width="30" height="34" viewBox="0 0 30 34" fill="none" xmlns="http://www.w3.org/2000/svg">
<path d="M0 0L2.68275 30.0909L14.7216 33.4328L26.7938 30.0862L29.4795 0H0ZM23.8834 7.14099L23.7154 9.01193L23.6416 9.8416H23.6294H14.7398H14.7269H9.51898L9.85626 13.6207H14.7269H14.7398H22.3111H23.3057L23.2156 14.6117L22.3484 24.3279L22.2928 24.951L14.7398 27.0443V27.0451L14.7228 27.0498L7.16297 24.951L6.6459 19.1565H8.35341H10.3506L10.6134 22.0997L14.7235 23.2097L14.7269 23.2088V23.2084L18.8433 22.0976L19.2713 17.3112H14.7398H14.7269H6.48103L5.57402 7.14099L5.48563 6.15102H14.7269H14.7398H23.9717L23.8834 7.14099Z" fill="white"/>
</svg>
