<svg width="33" height="33" viewBox="0 0 33 33" fill="none" xmlns="http://www.w3.org/2000/svg">
<path d="M0 0V33H33V0H0ZM17.9591 25.7365C17.9591 28.9481 16.0734 30.4142 13.3261 30.4142C10.844 30.4142 9.40736 29.1331 8.67075 27.5786L11.1976 26.0535C11.6844 26.915 12.1263 27.6446 13.1941 27.6446C14.21 27.6446 14.8583 27.2462 14.8583 25.6929V15.1517H17.9591V25.7365ZM25.2945 30.4142C22.4141 30.4142 20.5507 29.0447 19.6444 27.2462L22.1713 25.7883C22.8348 26.8714 23.7034 27.674 25.2285 27.674C26.5096 27.674 27.3358 27.0329 27.3358 26.1419C27.3358 25.0812 26.4955 24.7052 25.0741 24.0794L24.301 23.7482C22.0617 22.7983 20.5814 21.5973 20.5814 19.0705C20.5814 16.7428 22.3563 14.9749 25.1189 14.9749C27.093 14.9749 28.5073 15.6597 29.5244 17.457L27.1083 19.0045C26.578 18.0545 26.0028 17.6786 25.1118 17.6786C24.2067 17.6786 23.6315 18.2537 23.6315 19.0045C23.6315 19.9332 24.2067 20.308 25.5396 20.8902L26.3128 21.2214C28.9504 22.3481 30.4307 23.5054 30.4307 26.0971C30.4307 28.8821 28.235 30.413 25.2957 30.413L25.2945 30.4142Z" fill="white"/>
</svg>
