<svg width="49" height="30" viewBox="0 0 49 30" fill="none" xmlns="http://www.w3.org/2000/svg">
<path d="M11.5619 7.70997H20.8038V8.44452H12.4091V13.973H20.3032V14.7076H12.4091V20.7773H20.9001V21.5119H11.5619V7.70997ZM21.6317 7.70997H22.6136L26.965 13.7797L31.4127 7.70997L37.4622 0L27.5234 14.4176L32.6449 21.5119H31.6245L26.965 15.0555L22.2863 21.5119H21.2851L26.4452 14.4176L21.6317 7.70997ZM33.0107 8.44452V7.70997H43.5426V8.44452H38.6906V21.5119H37.8434V8.44452H33.0107ZM0 7.70997H1.05896L15.6614 29.5612L9.62693 21.5119L0.885677 8.75381L0.84717 21.5119H0V7.70997ZM43.4572 20.5556C43.2841 20.5556 43.1543 20.4215 43.1543 20.2482C43.1543 20.0749 43.2841 19.9408 43.4572 19.9408C43.6324 19.9408 43.7601 20.0749 43.7601 20.2482C43.7601 20.4215 43.6324 20.5556 43.4572 20.5556ZM44.2897 19.7469H44.743C44.7492 19.9924 44.9284 20.1574 45.1922 20.1574C45.4868 20.1574 45.6537 19.98 45.6537 19.6478V17.5434H46.1153V19.6499C46.1153 20.2482 45.7691 20.5928 45.1963 20.5928C44.6585 20.5928 44.2897 20.2585 44.2897 19.7469ZM46.719 19.72H47.1764C47.2156 20.0027 47.4917 20.1822 47.8894 20.1822C48.2603 20.1822 48.5323 19.9903 48.5323 19.7262C48.5323 19.4993 48.3592 19.3631 47.9656 19.2703L47.5824 19.1774C47.0446 19.0516 46.7994 18.7916 46.7994 18.3542C46.7994 17.824 47.2321 17.4712 47.8811 17.4712C48.4849 17.4712 48.9258 17.824 48.9526 18.3253H48.5034C48.4601 18.0509 48.2211 17.8797 47.875 17.8797C47.5103 17.8797 47.2671 18.055 47.2671 18.3233C47.2671 18.5358 47.4237 18.6575 47.8111 18.7483L48.1387 18.8287C48.7486 18.9711 49 19.2187 49 19.6664C49 20.2358 48.5591 20.5928 47.8544 20.5928C47.195 20.5928 46.752 20.2523 46.719 19.72Z" fill="white"/>
</svg>
