<svg width="33" height="30" viewBox="0 0 33 30" fill="none" xmlns="http://www.w3.org/2000/svg">
<path d="M16.5077 11.8556C17.0743 11.8557 17.6283 12.0232 18.0998 12.3371C18.5713 12.6511 18.9394 13.0974 19.1576 13.6199C19.3758 14.1423 19.4344 14.7176 19.3261 15.2734C19.2178 15.8291 18.9473 16.3403 18.5488 16.7428C18.1503 17.1452 17.6415 17.4209 17.0865 17.535C16.5315 17.6492 15.9551 17.5967 15.4299 17.3843C14.9047 17.1718 14.4541 16.8088 14.1349 16.3411C13.8157 15.8733 13.6422 15.3216 13.6361 14.7555C13.6341 14.3767 13.7068 14.0012 13.85 13.6505C13.9932 13.2997 14.2041 12.9806 14.4708 12.7113C14.7375 12.4421 15.0546 12.2279 15.4041 12.0811C15.7536 11.9343 16.1286 11.8577 16.5077 11.8556ZM9.39786 27.0299C10.3653 27.613 12.4691 26.7231 14.926 24.4216C14.1048 23.4892 13.3309 22.5163 12.6073 21.5064C11.3687 21.3678 10.1384 21.163 8.92182 20.8927C8.13867 24.1761 8.43043 26.4316 9.39786 27.0299ZM10.4881 18.223L10.0428 17.4405C9.86922 17.8715 9.72053 18.312 9.59749 18.76C10.0121 18.8521 10.4728 18.9288 10.9488 19.0055L10.4881 18.223ZM20.5309 17.0569L21.7748 14.7555L20.5309 12.454C20.0703 11.6408 19.5789 10.9197 19.1336 10.1986C18.3043 10.1526 17.429 10.1526 16.5077 10.1526C15.5863 10.1526 14.711 10.1526 13.8818 10.1526C13.4365 10.8737 12.9451 11.5948 12.4844 12.408L11.2406 14.7555L12.4844 17.0569C12.9451 17.8701 13.4365 18.5913 13.8818 19.3124C14.711 19.3124 15.5863 19.3124 16.5077 19.3124C17.429 19.3124 18.3043 19.3124 19.1336 19.3124C19.5789 18.5913 20.0703 17.8701 20.5309 17.0569ZM16.5077 6.7464C16.2159 7.08395 15.9088 7.43684 15.6017 7.8511H17.4137C17.1066 7.43684 16.7994 7.08395 16.5077 6.7464ZM16.5077 22.7646C16.7994 22.427 17.1066 22.0741 17.4137 21.6599H15.6017C15.9088 22.0741 16.2159 22.427 16.5077 22.7646ZM23.6021 2.48103C22.6501 1.89799 20.5309 2.78789 18.0893 5.08935C18.9105 6.02175 19.6844 6.9947 20.4081 8.00453C21.6456 8.12286 22.8758 8.30724 24.0935 8.55688C24.8767 5.27347 24.5849 3.01803 23.6021 2.41965M22.5272 11.2266L22.9725 12.0091C23.1461 11.5781 23.2948 11.1376 23.4179 10.6896C23.0033 10.5975 22.5426 10.5208 22.0665 10.4441L22.5272 11.2266ZM24.7538 0.486426C27.0112 1.77524 27.2569 5.16606 26.2894 9.12458C30.1899 10.2753 33 12.1932 33 14.7708C33 17.3485 30.1899 19.2663 26.2894 20.4171C27.2415 24.3756 26.9958 27.7664 24.7538 29.0552C22.5119 30.344 19.456 28.8711 16.5077 26.0633C13.5593 28.8711 10.5035 30.344 8.24616 29.0552C5.98883 27.7664 5.75849 24.4523 6.71056 20.4171C2.81014 19.2663 0 17.3485 0 14.7708C0 12.1932 2.81014 10.26 6.71056 9.10923C5.75849 5.15072 6.00419 1.7599 8.24616 0.471083C10.4881 -0.817735 13.5593 0.6552 16.5077 3.46298C19.456 0.6552 22.5119 -0.817735 24.7538 0.471083M24.3085 14.7555C24.8418 15.885 25.3134 17.0425 25.7213 18.223C28.946 17.2564 30.758 15.8755 30.758 14.7555C30.758 13.6354 28.9 12.2546 25.7213 11.288C25.3134 12.4685 24.8418 13.626 24.3085 14.7555ZM8.70684 14.7555C8.17352 13.626 7.70191 12.4685 7.29409 11.288C4.06933 12.2546 2.25733 13.6354 2.25733 14.7555C2.25733 15.8755 4.1154 17.2564 7.29409 18.223C7.70191 17.0425 8.17352 15.885 8.70684 14.7555ZM22.5272 18.223L22.0665 19.0055C22.5426 19.0055 23.0033 18.8521 23.4179 18.76C23.2948 18.312 23.1461 17.8715 22.9725 17.4405L22.5272 18.223ZM18.0433 24.4216C20.4849 26.7231 22.6501 27.613 23.5561 27.0299C24.4621 26.4469 24.8306 24.2375 24.0475 20.8927C22.8297 21.1424 21.5995 21.3267 20.362 21.4451C19.64 22.4758 18.8661 23.4693 18.0433 24.4216ZM10.4881 11.288L10.9488 10.5055C10.4728 10.5055 10.0121 10.6589 9.59749 10.7509C9.72053 11.1989 9.86922 11.6395 10.0428 12.0704L10.4881 11.288ZM14.9721 5.08935C12.4844 2.78789 10.3653 1.89799 9.39786 2.48103C8.43043 3.06406 8.13867 5.27347 8.92182 8.61826C10.1396 8.36861 11.3698 8.18423 12.6073 8.0659C13.3442 7.03407 14.1335 6.04058 14.9721 5.08935Z" fill="white"/>
</svg>
