<svg width="42" height="32" viewBox="0 0 42 32" fill="none" xmlns="http://www.w3.org/2000/svg">
<path d="M36.1553 18.3954C36.2065 18.3941 36.2669 18.3928 36.3287 18.3928C37.4238 18.3928 38.4598 18.6514 39.379 19.1128L39.3383 19.0941C40.1761 19.5088 40.8642 20.1222 41.3618 20.8742L41.3736 20.8929C41.7663 21.4742 42 22.1929 42 22.9663C42 23.0223 41.9987 23.0783 41.9961 23.133V23.125C41.9554 23.897 41.61 24.5784 41.0795 25.0557L41.0769 25.0584C40.7867 25.3477 40.4361 25.5744 40.0461 25.7184L40.0264 25.7251C39.8075 25.7695 39.6872 25.7362 39.6653 25.6251C39.6434 25.514 39.7419 25.3917 39.9607 25.2584C40.5543 24.893 40.9837 24.3037 41.1399 23.609L41.1439 23.5917C41.1478 23.5356 41.1504 23.4703 41.1504 23.4036C41.1504 22.989 41.0532 22.5969 40.8812 22.2503L40.8878 22.2649C40.6028 21.6609 40.1774 21.1649 39.6535 20.8062L39.6403 20.7982C38.8564 20.2862 37.9162 19.9502 36.9051 19.8662L36.8841 19.8648C36.5401 19.8128 36.1435 19.7835 35.7391 19.7835C34.6873 19.7835 33.6827 19.9848 32.7583 20.3515L32.8134 20.3315C33.0038 20.7835 33.1233 21.3076 33.1404 21.8569V21.8636C33.1194 22.9903 32.5232 23.9703 31.6369 24.517L31.6224 24.525C31.2154 24.8184 30.7505 25.0757 30.2555 25.2757L30.2095 25.2917C29.9088 25.4411 29.5556 25.5277 29.1827 25.5277C29.1393 25.5277 29.0973 25.5264 29.0553 25.5237H29.0619C28.2311 25.3468 28.0341 24.6135 28.471 23.3236C28.6614 22.7623 28.9279 22.2756 29.2654 21.8476L29.2575 21.8569C29.6895 21.2836 30.1636 20.7809 30.6875 20.3355L30.702 20.3235L30.5733 20.1288C30.333 19.7128 30.1124 19.2288 29.9351 18.7234L29.9167 18.6621C29.7854 18.2176 29.676 17.7959 29.5884 17.3967L29.5228 16.93L28.8662 18.1954C28.2972 19.2621 27.7501 20.1951 27.2248 20.9942L27.0279 21.3276C27.2485 21.8716 27.4113 22.5023 27.4848 23.161L27.4874 23.1943C27.4927 23.257 27.4953 23.3316 27.4953 23.4063C27.4953 24.417 27.0042 25.3104 26.2505 25.8557L26.2413 25.8624C25.8815 26.0878 25.4521 26.3211 25.007 26.5291L24.9282 26.5624C24.4647 26.7664 23.9276 26.8998 23.3643 26.9291H23.3524C23.3091 26.9318 23.2579 26.9345 23.2067 26.9345C22.8784 26.9345 22.5672 26.8584 22.2888 26.7238L22.302 26.7291C22.1352 26.5838 22.0301 26.3704 22.0301 26.1318C22.0301 26.0104 22.0577 25.8944 22.1063 25.7917L22.1037 25.7971C22.6289 25.049 23.1463 24.3983 23.6965 23.777L23.6794 23.797L25.1238 21.9316L24.8625 21.3316C24.6524 20.9395 24.4515 20.4769 24.29 19.9968L24.2716 19.9328C24.1403 19.4884 24.0309 19.0666 23.9433 18.6674L23.8777 18.2008L23.2211 19.8008C22.6968 21.0444 22.2153 22.1107 21.7767 22.9996C21.1228 24.333 20.5756 25.3553 20.1353 26.0664L20.004 26.2664C19.4796 27.11 18.9763 27.5318 18.4939 27.5318C18.0116 27.5318 17.6846 27.2207 17.513 26.5984C17.387 26.1398 17.3134 25.6131 17.3134 25.069C17.3134 25.021 17.3134 24.973 17.3147 24.925V24.9317L17.4461 23.9983V24.065C17.0959 24.9086 16.7457 25.686 16.3956 26.3971C16.1631 26.8585 15.9242 27.2518 15.6563 27.6225L15.6733 27.5971C15.4028 27.8852 15.022 28.0638 14.6005 28.0638C14.5966 28.0638 14.594 28.0638 14.59 28.0638C14.5625 28.0665 14.5309 28.0665 14.4994 28.0665C14.1672 28.0665 13.8652 27.9385 13.6367 27.7292L13.638 27.7305C13.1797 27.2531 12.8396 26.6571 12.6637 25.9917L12.6571 25.9637C12.4418 25.3571 12.3183 24.6557 12.3183 23.925C12.3183 23.8303 12.321 23.737 12.3249 23.645V23.6583C12.4286 22.5969 12.6374 21.6249 12.9434 20.6982L12.9158 20.7929L10.5535 22.1929V22.2596C10.8962 22.9823 11.0971 23.8303 11.0971 24.7264C11.0971 24.8904 11.0906 25.053 11.0774 25.213L11.0788 25.1917C11.0092 26.5651 10.5771 27.8225 9.87988 28.8852L9.89695 28.8585C9.16555 30.0372 8.11112 30.948 6.8584 31.4746L6.81507 31.4906C6.10993 31.812 5.28529 32 4.41863 32C3.86975 32 3.33663 31.9253 2.83239 31.784L2.87441 31.7933C2.45684 31.6507 2.11543 31.368 1.89877 31.0026L1.89483 30.9946C1.58887 30.5439 1.39584 29.9932 1.36564 29.3999V29.3919C1.3512 29.2572 1.34332 29.1012 1.34332 28.9425C1.34332 28.2585 1.49695 27.6105 1.77139 27.0331L1.75957 27.0598C2.5133 25.7544 3.55592 24.697 4.80075 23.953L4.84014 23.9317C5.72124 23.3116 6.73366 22.7103 7.79071 22.1863L7.9299 22.1236L8.25818 21.9236C7.86425 21.6125 7.14204 21.0791 6.09154 20.3235C4.68782 19.3688 3.46794 18.4048 2.31765 17.3621L2.35048 17.3914C1.23827 16.4193 0.428076 15.1206 0.0643427 13.6419L0.0538377 13.5912C0.0196967 13.3859 0 13.1499 0 12.9099C0 12.1578 0.190402 11.4511 0.523933 10.8365L0.513428 10.8591C1.24877 9.25372 2.26775 7.90033 3.51784 6.81228L3.53359 6.79895C4.8861 5.50156 6.4172 4.37218 8.0796 3.45748L8.19384 3.40014C9.67898 2.52944 11.4136 1.72007 13.2218 1.07071L13.445 1.00137C15.1245 0.377349 17.0639 0.0120005 19.0861 0.00533356H19.0888C19.1807 0.00266678 19.2897 0 19.3987 0C21.0282 0 22.5698 0.382683 23.9407 1.06404L23.8803 1.03604C25.0621 1.58273 25.9472 2.61211 26.3017 3.87083L26.3096 3.90283C26.4186 4.33218 26.4803 4.82553 26.4803 5.33356C26.4803 6.17626 26.3083 6.97896 25.9997 7.70699L26.0141 7.66832C25.4521 9.05104 24.6524 10.2284 23.6545 11.1978L23.6505 11.2018C22.6394 12.2192 21.4274 13.0325 20.0815 13.5752L20.0093 13.6006C18.599 14.2153 16.9615 14.6019 15.2426 14.6659L15.2177 14.6673C14.9656 14.6966 14.6741 14.7126 14.3786 14.7126C13.6013 14.7126 12.8515 14.5993 12.1424 14.3873L12.1988 14.4019C11.5646 14.1966 11.017 13.8779 10.5522 13.4646L10.5574 13.4686C10.2318 13.1992 9.96655 12.8672 9.77746 12.4899L9.76958 12.4725C9.63827 12.1169 9.62733 11.9058 9.73675 11.8392C9.84618 11.7725 9.92278 11.7614 9.96655 11.8058L10.2948 12.1392C10.6612 12.4845 11.0985 12.7565 11.5817 12.9299L11.6079 12.9379C12.2724 13.1725 13.0392 13.3086 13.8363 13.3086C14.0924 13.3086 14.3445 13.2952 14.5927 13.2672L14.5625 13.2699C16.6871 13.0152 18.6029 12.2792 20.2561 11.1725L20.2075 11.2031C21.6047 10.3591 22.7353 9.19905 23.531 7.81633L23.5547 7.77099C23.9499 7.18163 24.1863 6.4536 24.1863 5.66957C24.1863 5.18822 24.097 4.72686 23.9342 4.30285L23.9433 4.32818C23.4522 3.54015 22.6578 2.98546 21.7307 2.83212L21.7124 2.82945C20.9928 2.64944 20.1655 2.54544 19.3159 2.54544C18.6318 2.54544 17.9621 2.61211 17.3147 2.74011L17.3804 2.72945C15.1652 3.1348 13.185 3.82949 11.3585 4.7842L11.4779 4.72686C6.09592 7.48253 3.31693 10.3044 3.14097 13.1925V13.2579C3.14097 14.4219 3.59137 15.4793 4.3254 16.2607L4.32409 16.2593C5.16054 17.2034 6.08498 18.0368 7.09476 18.7568L7.14598 18.7914C8.06647 19.4901 8.8806 20.2115 9.63827 20.9902L9.63958 20.9929L9.77089 21.1262L13.9729 18.7941C14.4522 18.0901 15.0286 17.4954 15.6904 17.0154L15.7114 17.0007C16.2367 16.5527 16.9037 16.2607 17.6351 16.202L17.647 16.2007C17.6732 16.198 17.7034 16.198 17.7349 16.198C18.2247 16.198 18.6449 16.498 18.8261 16.9274L18.8288 16.9354C18.9666 17.2487 19.0467 17.6154 19.0467 18.0007C19.0467 18.1181 19.0389 18.2341 19.0244 18.3488L19.0257 18.3354L18.8984 18.9928L19.0953 18.8595C19.2319 18.7541 19.4039 18.6914 19.5904 18.6914C19.7086 18.6914 19.8202 18.7168 19.9213 18.7621L19.916 18.7594C20.1681 18.8261 20.3507 19.0555 20.3507 19.3275C20.3507 19.3741 20.3454 19.4195 20.3349 19.4635L20.3362 19.4595L20.1393 20.1928C19.7453 21.792 19.4831 22.9472 19.3527 23.6583C19.287 23.889 19.2503 24.1543 19.2503 24.429C19.2503 24.4864 19.2516 24.5424 19.2555 24.5984V24.5904C19.2774 24.857 19.3102 24.9904 19.354 24.9904C19.3978 24.9904 19.4849 24.857 19.6153 24.5904L19.8123 24.1237C19.8561 24.1237 19.8561 24.1459 19.8123 24.1903L20.5345 22.6569C22.2416 18.8363 23.1603 16.7029 23.2907 16.2567L23.6847 14.9913C23.7284 14.9024 23.9035 14.8139 24.2099 14.7259C24.5211 14.6406 24.877 14.5913 25.2446 14.5913C25.2748 14.5913 25.305 14.5913 25.3339 14.5926H25.33C25.9428 14.5926 26.2492 14.7482 26.2492 15.0593L26.1835 15.3926C26.0365 15.8033 25.8907 16.3167 25.7778 16.842L25.7633 16.926C25.7371 17.098 25.7213 17.2954 25.7213 17.4981C25.7213 17.7674 25.7476 18.0301 25.7988 18.2848L25.7948 18.2594L25.8605 18.5248C25.9944 19.0808 26.198 19.5688 26.4645 20.0142L26.4514 19.9915C26.9758 19.1035 27.4791 18.1928 27.9615 17.2594C28.3423 16.6154 28.6968 15.8687 28.9818 15.0873L29.012 14.994C29.1105 14.4913 29.2234 14.0673 29.3613 13.6539L29.3403 13.7286C29.384 13.5952 29.5709 13.4952 29.901 13.4286C30.2135 13.3646 30.572 13.3286 30.9383 13.3286H30.9856H30.983C31.5957 13.3286 31.9227 13.4841 31.9639 13.7952L31.8325 14.0606C31.6763 14.5086 31.5397 15.0473 31.4478 15.6006L31.4399 15.6607C31.4281 15.79 31.4202 15.9393 31.4202 16.0913C31.4202 16.41 31.4517 16.722 31.5108 17.0234L31.5056 16.9927V17.2581C31.6566 17.8394 31.8811 18.3501 32.1753 18.8128L32.1621 18.7914L32.3591 19.2581C33.4556 18.7114 34.745 18.3914 36.1081 18.3914H36.1593H36.1566L36.1553 18.3954ZM8.00344 28.0665C8.91605 27.1091 9.47938 25.8024 9.47938 24.3623C9.47938 23.8063 9.39534 23.2703 9.24039 22.7663L9.2509 22.8036L8.20041 23.4703C7.1289 24.0903 6.20185 24.7824 5.36276 25.5691L5.37327 25.5597C4.73641 26.1544 4.26631 26.9238 4.0352 27.7918L4.02733 27.8252C3.83036 28.6474 3.92884 29.1808 4.32278 29.4252C4.56308 29.5372 4.8454 29.6026 5.14085 29.6026C5.46387 29.6026 5.76983 29.5252 6.03902 29.3866L6.0272 29.3919C6.80719 29.1039 7.46769 28.6465 7.99293 28.0612L7.99687 28.0572L8.00344 28.0665ZM16.7974 21.9276C17.0162 21.3498 17.257 20.6609 17.5196 19.8608C17.8698 18.7941 17.9901 18.1723 17.8807 17.9954C17.7713 17.8185 17.5634 17.7963 17.257 17.9287C16.8919 18.1088 16.586 18.3554 16.3417 18.6581L16.3378 18.6634C16.0647 19.0141 15.8047 19.4061 15.5736 19.8182L15.5499 19.8635C15.2847 20.3048 15.0601 20.8129 14.9039 21.3516L14.892 21.3969C14.6386 22.0943 14.4915 22.901 14.4915 23.741C14.4915 23.8543 14.4942 23.9663 14.4994 24.0783V24.0623C14.5432 24.9504 14.6833 25.4282 14.9196 25.4957C15.156 25.5633 15.4295 25.2411 15.7403 24.529C16.041 23.9783 16.3089 23.3383 16.5085 22.6676L16.5269 22.5956C16.6573 22.2809 16.7466 22.0583 16.7947 21.9276H16.7974ZM24.0799 25.4611C24.9899 25.0464 25.6307 24.173 25.72 23.1396L25.7213 23.129V23.0623L24.9991 23.9957L23.6873 25.4624C23.6676 25.4784 23.6545 25.5024 23.6545 25.5291C23.6545 25.5557 23.6676 25.5797 23.686 25.5957C23.728 25.6393 23.8593 25.5948 24.0799 25.4624V25.4611ZM29.725 24.1943C30.7177 23.9063 31.432 22.993 31.432 21.9116C31.432 21.8942 31.432 21.8769 31.432 21.8596V21.8622C31.4189 21.5956 31.3716 21.3449 31.2942 21.1075L31.2994 21.1275C30.7886 21.5889 30.3697 22.1409 30.0664 22.7636L30.052 22.7943C29.6572 23.5934 29.5469 24.0592 29.7211 24.1917L29.725 24.1943Z" fill="white"/>
</svg>
