<svg width="33" height="33" viewBox="0 0 33 33" fill="none" xmlns="http://www.w3.org/2000/svg">
<path d="M2.34797e-08 16.4987C0.00153538 14.1804 0.484818 11.8878 1.4192 9.76613L9.30731 31.3498C6.51759 29.9984 4.16495 27.8885 2.51887 25.262C0.872787 22.6354 -0.000165306 19.5983 2.34797e-08 16.4987ZM27.6414 15.6736C27.4641 17.4968 27.048 19.2888 26.4037 21.0035L24.7535 26.4984L18.7797 8.80906L20.6609 8.61104C20.8247 8.57633 20.9705 8.48347 21.0711 8.34965C21.1718 8.21583 21.2206 8.05009 21.2085 7.88308C21.1964 7.71606 21.1243 7.55907 21.0054 7.44112C20.8866 7.32316 20.729 7.25223 20.5619 7.24144C20.5619 7.24144 17.8885 7.45595 16.1558 7.45595L11.8157 7.24144C11.6475 7.2491 11.488 7.31767 11.3667 7.43434C11.2454 7.55102 11.1707 7.70784 11.1566 7.87553C11.1424 8.04322 11.1898 8.21033 11.2898 8.34567C11.3898 8.48101 11.5357 8.57533 11.7002 8.61104L13.4494 8.80906L16.0238 15.8056L12.4098 26.6305L6.3864 8.80906L8.25117 8.61104C8.41454 8.58561 8.56344 8.50261 8.67098 8.37703C8.77853 8.25146 8.83763 8.09157 8.83763 7.92624C8.83763 7.76091 8.77853 7.60102 8.67098 7.47545C8.56344 7.34987 8.41454 7.26687 8.25117 7.24144C8.25117 7.24144 5.57779 7.45595 3.84504 7.45595H2.70638C4.01644 5.45721 5.74503 3.76685 7.77261 2.50177C9.8002 1.23669 12.0784 0.427084 14.4496 0.128931C16.8209 -0.169221 19.2286 0.0511988 21.5063 0.774949C23.784 1.4987 25.8773 2.70851 27.6414 4.32071H27.4269C26.6725 4.34231 25.9574 4.66168 25.4379 5.20899C24.9184 5.75631 24.6367 6.48704 24.6545 7.24144C24.8377 8.66111 25.4087 10.0028 26.3047 11.1192C27.1871 12.4753 27.6625 14.0558 27.6744 15.6736M16.8159 17.9343L21.8986 31.8284L22.0141 32.0594C18.7494 33.2159 15.2022 33.3083 11.8817 32.3234L16.8324 17.9343M30.9914 8.57804C33.0494 12.3581 33.5489 16.7925 32.3836 20.9356C31.2183 25.0787 28.4803 28.6026 24.7535 30.7558L29.8032 16.1851C30.6066 14.323 31.0383 12.3219 31.0739 10.2942L30.9584 8.64405" fill="white"/>
</svg>
