<svg width="32" height="26" viewBox="0 0 32 26" fill="none" xmlns="http://www.w3.org/2000/svg">
<path d="M28.2932 0.0163928H20.0923C18.0584 0.0163928 16.4018 1.67298 16.4018 3.70681V11.9077C16.4018 13.9416 18.0584 15.5982 20.0923 15.5982H22.2081L18.7637 22.4705C18.4521 23.1102 18.4849 23.8483 18.8621 24.4716C19.2394 25.0948 19.8954 25.4393 20.6007 25.4393H24.816C25.9149 25.4393 26.899 24.8324 27.3911 23.8483L31.6064 15.4341C31.8688 14.9257 32 14.3516 32 13.7775V3.69042C32 1.65659 30.3434 0 28.3096 0L28.2932 0.0163928ZM29.5233 13.7939C29.5233 13.9908 29.4741 14.1712 29.3921 14.3516L25.1768 22.7658C25.1112 22.9134 24.9636 22.9954 24.816 22.9954H21.2568L25.2916 14.9421C25.4885 14.5648 25.4557 14.1056 25.2424 13.7447C25.0128 13.3839 24.6192 13.1543 24.1927 13.1543H20.0923C19.4198 13.1543 18.8621 12.5966 18.8621 11.9241V3.7232C18.8621 3.05073 19.4198 2.49306 20.0923 2.49306H28.2932C28.9657 2.49306 29.5233 3.05073 29.5233 3.7232V13.8104V13.7939ZM11.8913 0.0163928H3.69042C1.65659 0.0163928 0 1.67298 0 3.70681V11.9077C0 13.9416 1.65659 15.5982 3.69042 15.5982H5.80624L2.36187 22.4705C2.05024 23.1102 2.08303 23.8483 2.46028 24.4716C2.83752 25.0948 3.49359 25.4393 4.19887 25.4393H8.41416C9.51308 25.4393 10.4972 24.8324 10.9892 23.8483L15.2045 15.4341C15.467 14.9257 15.5982 14.3516 15.5982 13.7775V3.69042C15.5982 1.65659 13.9416 0 11.9077 0L11.8913 0.0163928ZM13.1215 13.7939C13.1215 13.9908 13.0723 14.1712 12.9903 14.3516L8.775 22.7658C8.70939 22.9134 8.56177 22.9954 8.41416 22.9954H4.85496L8.8898 14.9421C9.08662 14.5648 9.05382 14.1056 8.8406 13.7447C8.61097 13.3839 8.21733 13.1543 7.79088 13.1543H3.69042C3.01794 13.1543 2.46028 12.5966 2.46028 11.9241V3.7232C2.46028 3.05073 3.01794 2.49306 3.69042 2.49306H11.8913C12.5638 2.49306 13.1215 3.05073 13.1215 3.7232V13.8104V13.7939Z" fill="#2A2933"/>
</svg>
