<svg width="22" height="19" viewBox="0 0 22 19" fill="none" xmlns="http://www.w3.org/2000/svg">
<path d="M10.5 15.75C10.5 16.164 10.164 16.5 9.75 16.5H3.75C1.332 16.5 0 15.168 0 12.75V3.75C0 1.332 1.332 0 3.75 0H15.75C18.168 0 19.5 1.332 19.5 3.75V6.75C19.5 7.164 19.164 7.5 18.75 7.5C18.336 7.5 18 7.164 18 6.75V3.75C18 2.173 17.327 1.5 15.75 1.5H3.75C2.173 1.5 1.5 2.173 1.5 3.75V12.75C1.5 14.327 2.173 15 3.75 15H9.75C10.164 15 10.5 15.336 10.5 15.75ZM15.856 4.30901C15.613 3.97501 15.1451 3.899 14.8081 4.144L9.896 7.716C9.808 7.779 9.69103 7.779 9.60303 7.716L4.69092 4.144C4.35292 3.899 3.88607 3.97601 3.64307 4.30901C3.39907 4.64401 3.47311 5.11399 3.80811 5.35699L8.71997 8.929C9.02797 9.153 9.38902 9.265 9.74902 9.265C10.109 9.265 10.4711 9.153 10.7781 8.929L15.6899 5.35699C16.0259 5.11299 16.101 4.64401 15.856 4.30901ZM21.5 11.632C21.499 12.07 21.3281 12.482 21.0181 12.791L15.502 18.281C15.361 18.421 15.1709 18.5 14.9729 18.5H12.75C12.336 18.5 12 18.164 12 17.75V15.528C12 15.33 12.078 15.139 12.219 14.999L17.71 9.48199C18.019 9.17099 18.4309 9 18.8689 9C18.8689 9 18.8701 9 18.8711 9C19.3091 9 19.7201 9.17 20.0291 9.48L21.019 10.471C21.33 10.781 21.5 11.193 21.5 11.632ZM18.772 10.541L18.1389 11.177L19.323 12.361L19.959 11.728C19.993 11.695 20 11.657 20 11.63C20 11.603 19.993 11.565 19.959 11.531L18.969 10.54C18.936 10.506 18.8981 10.499 18.8711 10.499C18.8441 10.499 18.807 10.507 18.772 10.541ZM18.26 13.419L17.0811 12.24L13.5 15.838V17.001H14.6631L18.26 13.419Z" fill="#D4EDFF"/>
</svg>
