<svg width="20" height="20" viewBox="0 0 20 20" fill="none" xmlns="http://www.w3.org/2000/svg">
<path d="M9.75 0.259995C4.19 0.259995 0 4.33999 0 9.73999C0 12.49 1.09001 14.98 3.07001 16.73L3.12 18.33C3.15 19.12 3.8 19.75 4.59 19.75C4.6 19.75 4.62 19.75 4.63 19.75C4.82 19.75 4.99999 19.7 5.17999 19.63L6.95001 18.84C7.85001 19.09 8.8 19.21 9.75 19.21C15.31 19.21 19.5 15.13 19.5 9.73C19.5 4.33 15.31 0.25 9.75 0.25V0.259995ZM9.75 17.72C8.93 17.72 8.12 17.61 7.34 17.4C7.01 17.31 6.65999 17.34 6.35999 17.48L4.62 18.29L4.57001 16.7C4.57001 16.3 4.37999 15.91 4.07999 15.64C2.41999 14.15 1.5 12.06 1.5 9.73999C1.5 5.18999 5.05 1.75999 9.75 1.75999C14.45 1.75999 18 5.18999 18 9.73999C18 14.29 14.45 17.72 9.75 17.72ZM15.18 7.67999L12.52 11.95C12.12 12.59 11.28 12.79 10.65 12.38C10.62 12.36 10.59 12.34 10.56 12.32L8.45001 10.71C8.26001 10.56 7.98999 10.56 7.79999 10.71L4.95001 12.91C4.57001 13.2 4.06999 12.74 4.32999 12.33L6.98999 8.04999C7.38999 7.40999 8.22999 7.21 8.85999 7.62C8.88999 7.64 8.92001 7.65999 8.95001 7.67999L11.06 9.28999C11.25 9.43999 11.52 9.43999 11.71 9.28999L14.56 7.09C14.94 6.8 15.44 7.26 15.18 7.67V7.67999Z" fill="#0056FF"/>
</svg>
