<svg width="18" height="18" viewBox="0 0 18 18" fill="none" xmlns="http://www.w3.org/2000/svg">
<path d="M15.308 6.42289C15.1544 6.23542 14.9412 6.12584 14.6458 6.09343L12.7039 6.1147C11.1314 6.13886 9.62715 5.33037 8.78762 4.0006L7.74573 2.36999C7.5785 2.11136 7.30052 1.96091 6.99254 1.9623C6.75291 1.96592 6.53311 2.06142 6.37253 2.22956C6.20505 2.39975 6.1203 2.62054 6.12186 2.85326L6.14108 4.78821C6.16524 6.36063 5.34778 7.86008 4.0111 8.70167L2.37362 9.74562C2.11293 9.90594 1.95965 10.1998 1.9659 10.4988C1.97518 10.985 2.37071 11.3787 2.85687 11.3695L4.79871 11.3482C6.37113 11.324 7.87543 12.1325 8.71496 13.4623L9.75689 15.0929C9.96748 15.4214 10.3752 15.5783 10.7484 15.4673C11.1215 15.3562 11.3792 15.0088 11.3807 14.6096L11.3594 12.6678C11.3353 11.0953 12.1527 9.5959 13.4874 8.7474L15.1691 7.67525C15.3586 7.52858 15.48 7.3044 15.4992 7.06552C15.5253 6.82457 15.4484 6.59169 15.3038 6.40907L15.308 6.42289ZM12.9121 7.85049C11.2656 8.88959 10.2609 10.7456 10.2842 12.6944L10.3008 13.9381L9.62775 12.8898C8.58174 11.2453 6.72572 10.2407 4.779 10.2709L3.53527 10.2875L4.5857 9.62135C6.23218 8.58226 7.23685 6.72622 7.21352 4.77745L7.20386 3.53168L7.86998 4.58209C8.91598 6.22651 10.772 7.23119 12.7188 7.20095L13.9625 7.18436L12.9121 7.85049Z" fill="#58699F"/>
<path d="M13.3698 6.60859L10.1945 6.04916L6.90146 2.5348L6.50515 3.76223L6.67375 5.59255L6.63672 6.73187L5.46036 7.83415L4.6295 8.83361L2.51947 10.5898L3.31329 10.7297L4.90093 11.0094L6.38575 10.9436L7.73071 11.6717L8.83299 12.848L10.5892 14.9581L10.7291 14.1642L10.906 12.2311L11.2885 10.989L12.0166 9.64401L13.4356 8.09341L14.6119 6.99113L13.3698 6.60859Z" fill="#58699F"/>
</svg>
